<?xml version="1.0" encoding="utf-8"?>
<!-- Generator: Adobe Illustrator 28.0.0, SVG Export Plug-In . SVG Version: 6.00 Build 0)  -->
<svg version="1.1" id="Layer_1" xmlns="http://www.w3.org/2000/svg" xmlns:xlink="http://www.w3.org/1999/xlink" x="0px"
	y="0px" viewBox="0 0 200 200" style="enable-background:new 0 0 200 200;" xml:space="preserve">
	<g>
		<path d="M38.4,22.7c-2.6,9.6-3.9,19.6-3.9,29.6c0,63,51.2,114.2,114.2,114.2c9,0,18-1.1,26.8-3.2
		c-18.2,18.1-43,28.6-69.3,28.6C52.1,192,8,147.9,8,93.8C8,66.5,19.2,41,38.4,22.7 M56.3,0C22.8,17.9,0,53.2,0,93.8
		C0,152.4,47.6,200,106.2,200c39.6,0,74.2-21.7,92.5-53.9c-14.9,8-31.9,12.5-50,12.5C90.1,158.6,42.5,111,42.5,52.3
		C42.5,33.3,47.5,15.4,56.3,0L56.3,0z" />
	</g>
</svg>