<?xml version="1.0" encoding="utf-8"?>
<!-- Generator: Adobe Illustrator 28.0.0, SVG Export Plug-In . SVG Version: 6.00 Build 0)  -->
<svg version="1.1" id="Layer_1" xmlns="http://www.w3.org/2000/svg" xmlns:xlink="http://www.w3.org/1999/xlink" x="0px" y="0px"
	 viewBox="0 0 32 32" style="enable-background:new 0 0 32 32;" xml:space="preserve">
<g>
	<path d="M15,29C8.4,28.9,3,23.1,3,16C3,8.9,8.4,3.1,15,3V29z"/>
	<path d="M14,4.1v23.9C8.4,27.3,4,22.2,4,16S8.4,4.7,14,4.1 M15.7,2c-0.2,0-0.4,0-0.6,0C7.9,2,2,8.3,2,16s5.9,14,13.2,14
		c0.2,0,0.4,0,0.6,0c0.1,0,0.2,0,0.3,0V2C15.9,2,15.8,2,15.7,2L15.7,2z"/>
</g>
<g>
	<path d="M16,2c7.7,0,14,6.3,14,14s-6.3,14-14,14S2,23.7,2,16S8.3,2,16,2 M16,0C7.2,0,0,7.2,0,16s7.2,16,16,16s16-7.2,16-16
		S24.8,0,16,0L16,0z"/>
</g>
</svg>
